# xmcd
# 
# Track frame offsets:
#     150
#     19911
#     39442
#     60884
#     92069
#     117715
#     139699
#     162502
#     190941
#     212679
#     237438
#     258587
#     275693
#     300183
# 
# Disc length: 4439
# 
# Revision: 1
# Processed by: cddbd v1.5.2PL0 Copyright (c) Steve Scherf et al.
# Submitted via: fre:ac v1.1beta1pre5
# 
DISCID=c411550e
DTITLE=Stieg Larsson - The Girl Who Played with Fire
DYEAR=2009
DGENRE=Audiobook
TTITLE0=Girl Who Played with Fire - CD 08 Track 01
TTITLE1=Girl Who Played with Fire - CD 08 Track 02
TTITLE2=Girl Who Played with Fire - CD 08 Track 03
TTITLE3=Girl Who Played with Fire - CD 08 Track 04
TTITLE4=Girl Who Played with Fire - CD 08 Track 05
TTITLE5=Girl Who Played with Fire - CD 08 Track 06
TTITLE6=Girl Who Played with Fire - CD 08 Track 07
TTITLE7=Girl Who Played with Fire - CD 08 Track 08
TTITLE8=Girl Who Played with Fire - CD 08 Track 09
TTITLE9=Girl Who Played with Fire - CD 08 Track 10
TTITLE10=Girl Who Played with Fire - CD 08 Track 11
TTITLE11=Girl Who Played with Fire - CD 08 Track 12
TTITLE12=Girl Who Played with Fire - CD 08 Track 13
TTITLE13=Girl Who Played with Fire - CD 08 Track 14
EXTD=YEAR: 2009
EXTT0=
EXTT1=
EXTT2=
EXTT3=
EXTT4=
EXTT5=
EXTT6=
EXTT7=
EXTT8=
EXTT9=
EXTT10=
EXTT11=
EXTT12=
EXTT13=
PLAYORDER=
